<?xml version="1.0" standalone="no"?><svg xmlns="http://www.w3.org/2000/svg" viewBox="0 0 1440 320"><path fill="#fff" fill-opacity="1" d="M0,256L6.9,218.7C13.7,181,27,107,41,101.3C54.9,96,69,160,82,176C96,192,110,160,123,160C137.1,160,151,192,165,181.3C178.3,171,192,117,206,80C219.4,43,233,21,247,16C260.6,11,274,21,288,58.7C301.7,96,315,160,329,192C342.9,224,357,224,370,218.7C384,213,398,203,411,202.7C425.1,203,439,213,453,186.7C466.3,160,480,96,494,101.3C507.4,107,521,181,535,218.7C548.6,256,562,256,576,218.7C589.7,181,603,107,617,101.3C630.9,96,645,160,658,197.3C672,235,686,245,699,234.7C713.1,224,727,192,741,160C754.3,128,768,96,782,101.3C795.4,107,809,149,823,170.7C836.6,192,850,192,864,213.3C877.7,235,891,277,905,250.7C918.9,224,933,128,946,80C960,32,974,32,987,32C1001.1,32,1015,32,1029,58.7C1042.3,85,1056,139,1070,144C1083.4,149,1097,107,1111,85.3C1124.6,64,1138,64,1152,101.3C1165.7,139,1179,213,1193,245.3C1206.9,277,1221,267,1234,250.7C1248,235,1262,213,1275,170.7C1289.1,128,1303,64,1317,37.3C1330.3,11,1344,21,1358,48C1371.4,75,1385,117,1399,160C1412.6,203,1426,245,1433,266.7L1440,288L1440,320L1433.1,320C1426.3,320,1413,320,1399,320C1385.1,320,1371,320,1358,320C1344,320,1330,320,1317,320C1302.9,320,1289,320,1275,320C1261.7,320,1248,320,1234,320C1220.6,320,1207,320,1193,320C1179.4,320,1166,320,1152,320C1138.3,320,1125,320,1111,320C1097.1,320,1083,320,1070,320C1056,320,1042,320,1029,320C1014.9,320,1001,320,987,320C973.7,320,960,320,946,320C932.6,320,919,320,905,320C891.4,320,878,320,864,320C850.3,320,837,320,823,320C809.1,320,795,320,782,320C768,320,754,320,741,320C726.9,320,713,320,699,320C685.7,320,672,320,658,320C644.6,320,631,320,617,320C603.4,320,590,320,576,320C562.3,320,549,320,535,320C521.1,320,507,320,494,320C480,320,466,320,453,320C438.9,320,425,320,411,320C397.7,320,384,320,370,320C356.6,320,343,320,329,320C315.4,320,302,320,288,320C274.3,320,261,320,247,320C233.1,320,219,320,206,320C192,320,178,320,165,320C150.9,320,137,320,123,320C109.7,320,96,320,82,320C68.6,320,55,320,41,320C27.4,320,14,320,7,320L0,320Z"></path></svg>