<?xml version="1.0" standalone="no"?><svg xmlns="http://www.w3.org/2000/svg" viewBox="0 0 1440 320"><path fill="#fff" fill-opacity="1" d="M0,256L6.9,218.7C13.7,181,27,107,41,101.3C54.9,96,69,160,82,176C96,192,110,160,123,160C137.1,160,151,192,165,181.3C178.3,171,192,117,206,80C219.4,43,233,21,247,16C260.6,11,274,21,288,58.7C301.7,96,315,160,329,192C342.9,224,357,224,370,218.7C384,213,398,203,411,202.7C425.1,203,439,213,453,186.7C466.3,160,480,96,494,101.3C507.4,107,521,181,535,218.7C548.6,256,562,256,576,218.7C589.7,181,603,107,617,101.3C630.9,96,645,160,658,197.3C672,235,686,245,699,234.7C713.1,224,727,192,741,160C754.3,128,768,96,782,101.3C795.4,107,809,149,823,170.7C836.6,192,850,192,864,213.3C877.7,235,891,277,905,250.7C918.9,224,933,128,946,80C960,32,974,32,987,32C1001.1,32,1015,32,1029,58.7C1042.3,85,1056,139,1070,144C1083.4,149,1097,107,1111,85.3C1124.6,64,1138,64,1152,101.3C1165.7,139,1179,213,1193,245.3C1206.9,277,1221,267,1234,250.7C1248,235,1262,213,1275,170.7C1289.1,128,1303,64,1317,37.3C1330.3,11,1344,21,1358,48C1371.4,75,1385,117,1399,160C1412.6,203,1426,245,1433,266.7L1440,288L1440,0L1433.1,0C1426.3,0,1413,0,1399,0C1385.1,0,1371,0,1358,0C1344,0,1330,0,1317,0C1302.9,0,1289,0,1275,0C1261.7,0,1248,0,1234,0C1220.6,0,1207,0,1193,0C1179.4,0,1166,0,1152,0C1138.3,0,1125,0,1111,0C1097.1,0,1083,0,1070,0C1056,0,1042,0,1029,0C1014.9,0,1001,0,987,0C973.7,0,960,0,946,0C932.6,0,919,0,905,0C891.4,0,878,0,864,0C850.3,0,837,0,823,0C809.1,0,795,0,782,0C768,0,754,0,741,0C726.9,0,713,0,699,0C685.7,0,672,0,658,0C644.6,0,631,0,617,0C603.4,0,590,0,576,0C562.3,0,549,0,535,0C521.1,0,507,0,494,0C480,0,466,0,453,0C438.9,0,425,0,411,0C397.7,0,384,0,370,0C356.6,0,343,0,329,0C315.4,0,302,0,288,0C274.3,0,261,0,247,0C233.1,0,219,0,206,0C192,0,178,0,165,0C150.9,0,137,0,123,0C109.7,0,96,0,82,0C68.6,0,55,0,41,0C27.4,0,14,0,7,0L0,0Z"></path></svg>