<svg width="126" height="183" viewBox="0 0 126 183" fill="none" xmlns="http://www.w3.org/2000/svg">
<path d="M0.802902 146.675V36.5451L62.7719 0.658813L124.741 36.5451V146.675L62.7719 182.543L0.802902 146.675Z" fill="#107C10"/>
<path d="M62.7719 10.065L8.9231 41.2299V141.971L62.7719 173.155L116.621 141.971V41.2299L62.7719 10.065ZM114.942 141.001L62.7719 171.215L10.6019 141.001V42.2181L62.7719 12.0048L114.942 42.2181V141.001Z" fill="#9BF00B"/>
<path d="M62.7719 1.7934L1.78828 37.1124V146.107L62.7719 181.426L123.756 146.107V37.1124L62.7719 1.7934ZM62.7719 7.869L118.518 40.1502V57.0777H7.02535V40.1502L62.7719 7.869ZM62.7719 175.332L7.02535 143.069V91.5915H118.518V143.069L62.7719 175.332Z" fill="black"/>
<path d="M62.7719 32.94C62.7901 32.94 62.8084 32.9583 62.8266 32.9583C67.2608 36.3438 74.8518 44.7069 72.5344 47.0676C69.925 49.3551 66.5127 50.7459 62.7719 50.7459C59.0311 50.7459 55.6188 49.3551 53.0094 47.0676C50.692 44.7069 58.283 36.3255 62.7172 32.9583C62.7354 32.9583 62.7536 32.94 62.7719 32.94ZM70.4906 23.1861C68.2279 21.8319 65.7645 21.0084 62.7719 21.0084C59.7793 21.0084 57.3159 21.8319 55.0531 23.1861C55.0349 23.2044 55.0167 23.241 55.0349 23.2593C55.0531 23.2776 55.0714 23.2959 55.1079 23.2776C57.9728 22.6554 62.334 25.1442 62.7536 25.4004C62.7719 25.4004 62.7719 25.4187 62.7901 25.4187C62.8084 25.4187 62.8084 25.4187 62.8266 25.4004C63.2463 25.1442 67.6075 22.6554 70.4724 23.2776C70.5089 23.2776 70.5271 23.2776 70.5454 23.2593C70.5271 23.2227 70.5271 23.2044 70.4906 23.1861ZM52.389 25.2723C52.3707 25.2906 52.3343 25.3089 52.316 25.3272C49.6154 28.0173 47.9366 31.7505 47.9366 35.8863C47.9366 39.2718 49.0679 42.4011 50.9657 44.8899C50.9839 44.9082 51.0204 44.9265 51.0387 44.9082C51.0569 44.8899 51.0569 44.8533 51.0569 44.835C49.9256 41.3214 55.7101 32.8302 58.6844 29.2617C58.7027 29.2434 58.7027 29.2434 58.7027 29.2251C58.7027 29.2068 58.6844 29.1885 58.6844 29.1702C54.1773 24.6684 52.6445 25.1442 52.389 25.2723ZM66.8411 29.1885C66.8229 29.2068 66.8229 29.2251 66.8229 29.2434C66.8229 29.2617 66.8411 29.28 66.8411 29.28C69.8337 32.8485 75.6 41.3397 74.4686 44.8533C74.4504 44.8899 74.4686 44.9082 74.4869 44.9265C74.5051 44.9448 74.5416 44.9265 74.5599 44.9082C76.4576 42.4011 77.589 39.2901 77.589 35.9046C77.589 31.7688 75.9102 28.0356 73.2095 25.3455C73.1913 25.3272 73.173 25.3089 73.1366 25.2906C72.8993 25.1442 71.3665 24.6684 66.8411 29.1885Z" fill="white"/>
<path d="M41.6046 100.723C42.298 100.723 42.8272 100.979 43.2104 101.492C43.5936 101.986 43.7761 102.7 43.7761 103.615C43.7761 104.566 43.5571 105.335 43.1374 105.847C42.6995 106.378 42.0791 106.652 41.2944 106.652H41.2762V105.317H41.2944C41.7871 105.317 42.1521 105.152 42.371 104.877C42.59 104.585 42.6995 104.145 42.6995 103.578C42.6995 103.121 42.6083 102.755 42.444 102.517C42.2798 102.279 42.0243 102.151 41.6959 102.151C41.4222 102.151 41.2214 102.26 41.0755 102.462C40.9295 102.663 40.8017 103.047 40.6923 103.596L40.5645 104.2C40.4185 104.951 40.1631 105.536 39.8164 105.92C39.4514 106.305 38.9952 106.488 38.4113 106.488C37.8091 106.488 37.3164 106.25 36.9515 105.792C36.5865 105.335 36.4041 104.676 36.4041 103.853C36.4041 102.919 36.6048 102.206 37.0062 101.73C37.4077 101.254 37.9734 100.998 38.685 100.961H38.7033V102.279H38.685C38.2836 102.297 37.9916 102.443 37.8091 102.681C37.6266 102.919 37.5172 103.304 37.5172 103.834C37.5172 104.237 37.5902 104.548 37.7361 104.768C37.8821 104.987 38.1011 105.097 38.3748 105.097C38.6485 105.097 38.8675 105.005 39.0135 104.804C39.1594 104.603 39.2872 104.237 39.3967 103.724L39.5244 103.102C39.6886 102.279 39.9441 101.675 40.2726 101.309C40.5645 100.925 41.0207 100.723 41.6046 100.723ZM40.2361 139.428C39.9076 139.794 39.6521 140.398 39.4879 141.221L39.3602 141.843C39.2507 142.356 39.123 142.722 38.977 142.923C38.831 143.124 38.612 143.216 38.3383 143.216C38.0646 143.216 37.8456 143.106 37.6996 142.886C37.5537 142.667 37.4807 142.356 37.4807 141.953C37.4807 141.422 37.5719 141.038 37.7726 140.8C37.9551 140.562 38.2653 140.434 38.6485 140.398H38.6668V139.08H38.6485C37.9369 139.098 37.3712 139.373 36.9697 139.849C36.5683 140.324 36.3676 141.038 36.3676 141.971C36.3676 142.795 36.55 143.435 36.915 143.911C37.2799 144.369 37.7726 144.607 38.3748 144.607C38.9405 144.607 39.4149 144.405 39.7799 144.039C40.1448 143.655 40.382 143.088 40.528 142.319L40.6558 141.715C40.7652 141.166 40.893 140.782 41.039 140.581C41.1849 140.379 41.3857 140.27 41.6594 140.27C41.9878 140.27 42.2433 140.398 42.4075 140.636C42.5718 140.873 42.663 141.239 42.663 141.697C42.663 142.264 42.5535 142.703 42.3345 142.996C42.1156 143.289 41.7506 143.435 41.2579 143.435H41.2397V144.771H41.2579C42.0608 144.771 42.6812 144.497 43.1009 143.966C43.5389 143.435 43.7396 142.685 43.7396 141.733C43.7396 140.837 43.5389 140.123 43.1739 139.611C42.7907 139.098 42.2433 138.842 41.5681 138.842C41.0207 138.879 40.5645 139.062 40.2361 139.428ZM43.6119 122.134V123.543C43.4112 123.671 43.1192 123.726 42.7725 123.726L42.0061 123.763C41.5864 123.781 41.2762 123.873 41.1119 124.056C40.9477 124.22 40.8565 124.513 40.8565 124.898V126.636H43.6119V127.99H36.5318V124.769C36.5318 124.605 36.5318 124.458 36.55 124.312C36.55 124.367 36.55 124.403 36.55 124.458C36.5865 123.909 36.7143 123.452 36.9515 123.104C36.9332 123.122 36.915 123.159 36.8967 123.177C36.9515 123.086 37.0062 123.013 37.061 122.939C37.4259 122.5 37.9186 122.281 38.5208 122.281C39.3602 122.281 39.9258 122.665 40.1996 123.434C40.3091 123.086 40.4915 122.83 40.7287 122.683C40.966 122.519 41.2944 122.445 41.7141 122.427L42.7725 122.372C43.1192 122.354 43.3929 122.281 43.6119 122.134ZM38.685 123.671C38.3566 123.671 38.1011 123.781 37.9186 123.983C37.7361 124.202 37.6449 124.495 37.6449 124.898V126.636H39.7799V124.861C39.7799 124.495 39.6886 124.202 39.5062 123.983C39.3237 123.763 39.05 123.671 38.685 123.671ZM36.5318 119.279H43.6119V117.925H36.5318V119.279ZM37.7544 109.379H36.5318V114.613H43.6119V109.379H42.3893V113.259H40.5828V109.745H39.4149V113.259H37.7544V109.379ZM37.7544 130.9H36.5318V136.152H43.6119V130.918H42.3893V134.798H40.5828V131.284H39.4149V134.798H37.7544V130.9ZM46.6957 144.79H56.0933L63.2281 134.944L58.5385 128.466L46.6957 144.79ZM87.8624 100.943H78.4649L72.6256 108.995L77.3153 115.473L87.8624 100.943ZM57.3889 100.943H47.9913L79.7605 144.79H89.158L57.3889 100.943Z" fill="white"/>
<path d="M32.864 74.3163C32.864 75.03 32.718 75.6522 32.4261 76.2012C32.1341 76.7502 31.7327 77.1894 31.2217 77.4822C30.6925 77.775 30.1086 77.9397 29.4517 77.9397C28.813 77.9397 28.2291 77.7933 27.7182 77.5005C27.2072 77.2077 26.8058 76.7868 26.5321 76.2561C26.2584 75.7254 26.1124 75.1215 26.1124 74.4444C26.1124 73.7307 26.2584 73.0902 26.5321 72.5412C26.824 71.9922 27.2255 71.553 27.7547 71.2419C28.2839 70.9308 28.886 70.7844 29.5612 70.7844C30.1999 70.7844 30.7655 70.9308 31.2765 71.2236C31.7874 71.5164 32.1706 71.9373 32.4443 72.468C32.718 73.017 32.864 73.6209 32.864 74.3163ZM31.2217 74.4078C31.2217 73.7124 31.0757 73.1451 30.7655 72.7425C30.4736 72.3399 30.0539 72.1386 29.5065 72.1386C28.9773 72.1386 28.5393 72.3399 28.2109 72.7425C27.8824 73.1451 27.7182 73.6941 27.7182 74.3712C27.7182 75.0483 27.8824 75.579 28.1926 75.9816C28.5028 76.3842 28.9225 76.5855 29.4517 76.5855C29.9809 76.5855 30.4188 76.3842 30.729 75.9999C31.0393 75.6156 31.2217 75.0849 31.2217 74.4078Z" fill="white"/>
<path d="M39.0317 73.1085C39.0317 73.566 38.9222 73.9686 38.685 74.3163C38.466 74.664 38.1376 74.9385 37.7179 75.1398C37.2982 75.3411 36.8238 75.4326 36.2946 75.4326H35.5464V77.8116H33.9954V70.9125H36.4223C38.1741 70.9125 39.0317 71.6445 39.0317 73.1085ZM37.4077 73.1634C37.4077 72.4497 36.988 72.102 36.1668 72.102H35.5647V74.2614H36.1668C36.988 74.2614 37.4077 73.8954 37.4077 73.1634Z" fill="white"/>
<path d="M44.871 72.1752H42.9002V77.8116H41.3492V72.1752H39.3967V70.9125H44.871V72.1752Z" fill="white"/>
<path d="M47.3526 77.8116H45.8016V70.9125H47.3526V77.8116Z" fill="white"/>
<path d="M56.7684 77.8116H55.2356V73.6758C55.2356 73.2366 55.2539 72.7608 55.2904 72.1935H55.2539C55.1809 72.6144 55.1079 72.9255 55.0349 73.1085L53.4291 77.8116H52.17L50.5277 73.1634C50.4912 73.0353 50.4182 72.7242 50.3088 72.1935H50.2723C50.3088 72.7974 50.327 73.4013 50.327 73.9869V77.8116H48.9219V70.9125H51.1846L52.5897 75.0117C52.681 75.2862 52.7722 75.6156 52.8269 75.9999H52.8634C52.9364 75.6339 53.0277 75.3045 53.1371 75.0117L54.5422 70.9308H56.7502V77.8116H56.7684Z" fill="white"/>
<path d="M59.8888 77.8116H58.3377V70.9125H59.8888V77.8116Z" fill="white"/>
<path d="M66.3849 71.7909L62.9361 76.5672H66.4032V77.8299H60.8559V76.9332L64.3777 72.1935H61.1114V70.9308H66.4032V71.7909H66.3849Z" fill="white"/>
<path d="M71.549 77.8116H67.4251V70.9125H71.403V72.1752H68.9761V73.7124H71.2206V74.9751H68.9761V76.5489H71.549V77.8116Z" fill="white"/>
<path d="M78.7568 74.2797C78.7568 74.9751 78.6109 75.5973 78.3007 76.128C77.9904 76.6587 77.5707 77.0796 77.0051 77.3724C76.4394 77.6652 75.8007 77.8116 75.0891 77.8116H72.6439V70.9125H75.0891C77.5343 70.9125 78.7568 72.0288 78.7568 74.2797ZM77.1328 74.298C77.1328 73.6392 76.9321 73.1268 76.5489 72.7425C76.1657 72.3582 75.6365 72.1752 74.9613 72.1752H74.1949V76.5489H74.9613C75.6182 76.5489 76.1474 76.3476 76.5306 75.945C76.9138 75.5424 77.1328 75.0117 77.1328 74.298Z" fill="white"/>
<path d="M86.1836 72.1752H83.7567V73.8771H85.9829V75.1398H83.7567V77.8299H82.2056V70.9308H86.1836V72.1752Z" fill="white"/>
<path d="M93.6287 74.3163C93.6287 75.03 93.4827 75.6522 93.1907 76.2012C92.8988 76.7502 92.4973 77.1894 91.9864 77.4822C91.4572 77.775 90.8733 77.9397 90.2164 77.9397C89.5777 77.9397 88.9938 77.7933 88.4828 77.5005C87.9719 77.2077 87.5705 76.7868 87.2967 76.2561C87.023 75.7254 86.877 75.1215 86.877 74.4444C86.877 73.7307 87.023 73.0902 87.2967 72.5412C87.5887 71.9922 87.9901 71.553 88.5193 71.2419C89.0485 70.9308 89.6507 70.7844 90.3258 70.7844C90.9645 70.7844 91.5302 70.9308 92.0411 71.2236C92.5521 71.5164 92.9353 71.9373 93.209 72.468C93.5009 73.017 93.6287 73.6209 93.6287 74.3163ZM92.0046 74.4078C92.0046 73.7124 91.8587 73.1451 91.5484 72.7425C91.2565 72.3399 90.8368 72.1386 90.2894 72.1386C89.7602 72.1386 89.3222 72.3399 88.9938 72.7425C88.6653 73.1451 88.5011 73.6941 88.5011 74.3712C88.5011 75.0483 88.6653 75.579 88.9755 75.9816C89.2857 76.3842 89.7054 76.5855 90.2346 76.5855C90.7638 76.5855 91.2017 76.3842 91.5119 75.9999C91.8222 75.6156 92.0046 75.0849 92.0046 74.4078Z" fill="white"/>
<path d="M100.07 77.8116H98.2818L97.5884 76.0365C97.3695 75.4509 97.0592 75.1764 96.6578 75.1764H96.3293V77.8116H94.7783V70.9125H97.2417C98.9205 70.9125 99.7417 71.5347 99.7417 72.7974C99.7417 73.2732 99.6139 73.6758 99.3402 74.0052C99.0665 74.3346 98.6833 74.5725 98.1906 74.7006V74.7189C98.5921 74.847 98.9205 75.1947 99.176 75.7803L100.07 77.8116ZM98.0993 72.9804C98.0993 72.3765 97.7344 72.0837 97.0227 72.0837H96.3293V74.0052H97.0045C97.3329 74.0052 97.5884 73.9137 97.8074 73.7124C98.0081 73.5294 98.0993 73.2732 98.0993 72.9804Z" fill="white"/>
</svg>
